# xmcd
#
# Track frame offsets:
#	150
#	18222
#	42827
#	61697
#	87255
#	109720
#	136639
#	161366
#	185581
#	198756
#	213005
#	225397
#	247294
#	263607
#	277452
#	293745
#	324555
# Disc length: 4487 seconds
# Revision: 3
# Processed by: cddbd v1.5.2PL0 Copyright (c) Steve Scherf et al.
#
# Submitted via: libkcddb 0.31
#
DISCID=e4118511
DTITLE=Various Artist - Music Explorer - Electric Blues
DYEAR=2004
DGENRE=Blues
TTITLE0=Muddy Waters - I'm Your Hoochie Goochie Man
TTITLE1=BB King - The Thrill Is Gone
TTITLE2=Janis Joplin - One Good Man
TTITLE3=John Lee Hooker - The Healer
TTITLE4=Keb' Mo' - Keep In Simple
TTITLE5=Blood, Sweat and Tears - I Love You More Than You'll Ever Know
TTITLE6=The Fabulous Thunderbirds - Feelin' Good
TTITLE7=Stevie Ray Vaughan - Texas Flood
TTITLE8=Johnny Winter - Mother In Law Blues
TTITLE9=Sonny Boy Williamson - Help Me
TTITLE10=Howlin' Wolf - Spoonful
TTITLE11=Taj Mahal - Leaving Trunk
TTITLE12=Willie Dixon - Little Red Rooster
TTITLE13=Elvin Bishop - Ow Much More
TTITLE14=Albert Collins - Travellin' South
TTITLE15=Mike Bloomfield - Stop
TTITLE16=Noone - Ημερομηνία κομματιού
EXTD=
EXTT0=
EXTT1=
EXTT2=
EXTT3=
EXTT4=
EXTT5=
EXTT6=
EXTT7=
EXTT8=
EXTT9=
EXTT10=
EXTT11=
EXTT12=
EXTT13=
EXTT14=
EXTT15=
EXTT16=
PLAYORDER=
